<mxfile host="app.diagrams.net" modified="2024-01-11T07:43:37.562Z" agent="Mozilla/5.0 (Macintosh; Intel Mac OS X 10_15_7) AppleWebKit/537.36 (KHTML, like Gecko) Chrome/120.0.0.0 Safari/537.36" version="22.1.18" etag="CQ2ugKKnlsgasq8i2p6W" type="github">
  <diagram name="第 1 页" id="tCEN-EMykmEuA1S0QrHA">
    <mxGraphModel>
      <root>
        <mxCell id="0" />
        <mxCell id="1" parent="0" />
      </root>
    </mxGraphModel>
  </diagram>
</mxfile>
